<?xml version="1.0" encoding="utf-8"?>
<svg viewBox="0 0 500 500" xmlns="http://www.w3.org/2000/svg" xmlns:bx="https://boxy-svg.com">
  <title>compass_1</title>
  <g id="Layer_2" data-name="Layer 2" transform="matrix(0.537655, 0, 0, 0.537655, 513.657104, 431.54361)" style="">
    <g id="Object">
      <path d="M 249.142 19.382 L 285.265 249.47 L 213.018 249.47 L 249.142 19.382 Z" style="fill: rgb(255, 67, 67);" transform="matrix(1.859929, 0, 0, 1.859929, -945.931224, -804.603249)" bx:shape="triangle 213.018 19.382 72.247 230.088 0.5 0 1@dd92f5c1"/>
      <path d="M -249.427 -479.054 L -213.304 -248.966 L -285.551 -248.966 L -249.427 -479.054 Z" style="fill: rgb(73, 137, 255);" transform="matrix(-1.859929, 0, 0, -1.859929, -945.931224, -804.603249)" bx:shape="triangle -285.551 -479.054 72.247 230.088 0.5 0 1@a3f72cfe"/>
      <path style="fill: rgb(227, 27, 27); stroke-width: 0px;" d="M 248.856 20.595 L 248.856 249.431 L 284.897 249.431 L 248.856 20.595 Z" transform="matrix(1.859929, 0, 0, 1.859929, -945.931224, -804.603249)"/>
      <path style="stroke-width: 0px; stroke-opacity: 0; vector-effect: non-scaling-stroke; stroke-miterlimit: 1; fill: rgb(35, 115, 220);" d="M 249.428 476.116 L 249.428 248.988 L 284.916 248.988 L 249.428 476.116 Z" transform="matrix(1.859929, 0, 0, 1.859929, -945.931224, -804.603249)"/>
      <circle style="fill: rgb(255, 255, 255);" cx="248.712" cy="249.712" r="23.898" transform="matrix(1.859929, 0, 0, 1.859929, -945.931224, -804.603249)"/>
      <path d="M 232.415 237.906 L 232.415 260.951 C 232.415 261.389 232.713 261.771 233.138 261.877 L 236.872 262.811 L 240.691 260.888 L 245.147 264.879 L 248.417 265.697 C 248.493 265.716 248.571 265.725 248.649 265.725 C 248.726 265.725 248.805 265.716 248.88 265.697 L 264.159 261.877 C 264.584 261.771 264.883 261.389 264.883 260.951 L 264.883 237.906 L 248.649 241.964 Z M 232.415 237.906" fill="#505050" style="" transform="matrix(1.859929, 0, 0, 1.859929, -945.931224, -804.603249)"/>
      <path d="M 248.649 241.964 L 248.649 265.725 C 248.726 265.725 248.805 265.716 248.88 265.697 L 264.159 261.877 C 264.584 261.771 264.883 261.389 264.883 260.951 L 264.883 237.906 Z M 248.649 241.964" fill="#373737" style="" transform="matrix(1.859929, 0, 0, 1.859929, -945.931224, -804.603249)"/>
      <path d="M 232.415 240.502 L 232.415 246.291 L 248.417 250.291 C 248.493 250.31 248.571 250.319 248.649 250.319 C 248.726 250.319 248.805 250.31 248.88 250.291 L 264.883 246.291 L 264.883 240.502 L 248.649 244.561 Z M 232.415 240.502" fill="#ffe132" style="" transform="matrix(1.859929, 0, 0, 1.859929, -945.931224, -804.603249)"/>
      <path d="M 248.88 250.291 L 264.883 246.291 L 264.883 240.502 L 248.649 244.561 L 248.649 250.319 C 248.726 250.319 248.805 250.31 248.88 250.291 Z M 248.88 250.291" fill="#fac80f" style="" transform="matrix(1.859929, 0, 0, 1.859929, -945.931224, -804.603249)"/>
      <path d="M 248.649 242.68 C 248.571 242.68 248.493 242.671 248.417 242.652 L 233.138 238.832 C 232.713 238.726 232.415 238.344 232.415 237.906 C 232.415 237.468 232.713 237.086 233.138 236.979 L 248.417 233.16 C 248.569 233.121 248.728 233.121 248.88 233.16 L 264.159 236.979 C 264.584 237.086 264.883 237.468 264.883 237.906 C 264.883 238.344 264.584 238.726 264.159 238.832 L 248.88 242.652 C 248.805 242.671 248.726 242.68 248.649 242.68 Z M 248.649 242.68" fill="#646464" style="" transform="matrix(1.859929, 0, 0, 1.859929, -945.931224, -804.603249)"/>
      <path d="M 248.88 242.652 L 264.159 238.832 C 264.584 238.726 264.883 238.344 264.883 237.906 C 264.883 237.468 264.584 237.086 264.159 236.979 L 248.88 233.16 C 248.805 233.141 248.726 233.131 248.649 233.131 L 248.649 242.68 C 248.726 242.68 248.805 242.671 248.88 242.652 Z M 248.88 242.652" fill="#505050" style="" transform="matrix(1.859929, 0, 0, 1.859929, -945.931224, -804.603249)"/>
      <path d="M 244.424 254.455 L 238.057 252.863 C 237.772 252.792 237.47 252.856 237.239 253.037 C 237.007 253.217 236.872 253.495 236.872 253.789 L 236.872 262.811 L 245.147 264.879 L 245.147 255.381 C 245.147 254.942 244.849 254.561 244.424 254.455 Z M 244.424 254.455" fill="#ffe132" style="" transform="matrix(1.859929, 0, 0, 1.859929, -945.931224, -804.603249)"/>
      <path d="M 238.781 263.288 L 243.238 264.402 L 243.238 256.126 L 238.781 255.012 Z M 238.781 263.288" fill="#fac80f" style="" transform="matrix(1.859929, 0, 0, 1.859929, -945.931224, -804.603249)"/>
      <path style="fill: rgb(47, 47, 47);" d="M -482.469 -768.554 L -492.27 -706.642 L -472.866 -706.642 L -482.469 -768.554 Z"/>
      <path style="fill: rgb(216, 216, 216);" d="M -451.785 -706.642"/>
    </g>
  </g>
</svg>