<?xml version="1.0"?>
<svg xmlns="http://www.w3.org/2000/svg" xmlns:xlink="http://www.w3.org/1999/xlink" xmlns:svgjs="http://svgjs.com/svgjs" version="1.1" width="512" height="512" x="0" y="0" viewBox="0 0 512 512" style="enable-background:new 0 0 512 512" xml:space="preserve" class=""><g>
<g xmlns="http://www.w3.org/2000/svg">
	<g>
		<path d="M378.795,368.439c3.544-11.882,5.385-24.296,5.385-36.744c0-70.679-57.501-128.18-128.18-128.18    s-128.18,57.501-128.18,128.18c0,12.449,1.841,24.862,5.385,36.744H0v30h512v-30H378.795z M347.077,368.438H164.924    c-4.716-11.628-7.104-23.95-7.104-36.744c0-54.136,44.043-98.18,98.18-98.18c54.137,0,98.18,44.043,98.18,98.18    C354.18,344.488,351.793,356.81,347.077,368.438z" fill="#ffffff" data-original="#000000" style="" class=""/>
	</g>
</g>
<g xmlns="http://www.w3.org/2000/svg">
	<g>
		<rect x="241" y="113.561" width="30" height="60" fill="#ffffff" data-original="#000000" style="" class=""/>
	</g>
</g>
<g xmlns="http://www.w3.org/2000/svg">
	<g>
		<rect x="320.115" y="153.814" transform="matrix(0.5004 -0.8658 0.8658 0.5004 28.7601 387.4676)" width="60" height="30" fill="#ffffff" data-original="#000000" style="" class=""/>
	</g>
</g>
<g xmlns="http://www.w3.org/2000/svg">
	<g>
		
			<rect x="388.982" y="222.742" transform="matrix(0.8664 -0.4993 0.4993 0.8664 -62.7407 240.9592)" width="59.997" height="29.999" fill="#ffffff" data-original="#000000" style="" class=""/>
	</g>
</g>
<g xmlns="http://www.w3.org/2000/svg">
	<g>
		<rect x="429.128" y="301.899" transform="matrix(0.0012 -1 1 0.0012 111.6969 775.6281)" width="30" height="60" fill="#ffffff" data-original="#000000" style="" class=""/>
	</g>
</g>
<g xmlns="http://www.w3.org/2000/svg">
	<g>
		
			<rect x="146.002" y="138.797" transform="matrix(0.8658 -0.5003 0.5003 0.8658 -62.8524 103.1986)" width="29.999" height="59.997" fill="#ffffff" data-original="#000000" style="" class=""/>
	</g>
</g>
<g xmlns="http://www.w3.org/2000/svg">
	<g>
		
			<rect x="77.134" y="207.746" transform="matrix(0.4993 -0.8664 0.8664 0.4993 -159.8577 198.8621)" width="29.998" height="59.998" fill="#ffffff" data-original="#000000" style="" class=""/>
	</g>
</g>
<g xmlns="http://www.w3.org/2000/svg">
	<g>
		<rect x="37" y="316.92" transform="matrix(1 -0.0012 0.0012 1 -0.3984 0.0807)" width="60" height="30" fill="#ffffff" data-original="#000000" style="" class=""/>
	</g>
</g>
<g xmlns="http://www.w3.org/2000/svg">
</g>
<g xmlns="http://www.w3.org/2000/svg">
</g>
<g xmlns="http://www.w3.org/2000/svg">
</g>
<g xmlns="http://www.w3.org/2000/svg">
</g>
<g xmlns="http://www.w3.org/2000/svg">
</g>
<g xmlns="http://www.w3.org/2000/svg">
</g>
<g xmlns="http://www.w3.org/2000/svg">
</g>
<g xmlns="http://www.w3.org/2000/svg">
</g>
<g xmlns="http://www.w3.org/2000/svg">
</g>
<g xmlns="http://www.w3.org/2000/svg">
</g>
<g xmlns="http://www.w3.org/2000/svg">
</g>
<g xmlns="http://www.w3.org/2000/svg">
</g>
<g xmlns="http://www.w3.org/2000/svg">
</g>
<g xmlns="http://www.w3.org/2000/svg">
</g>
<g xmlns="http://www.w3.org/2000/svg">
</g>
</g></svg>
