<?xml version="1.0" encoding="iso-8859-1"?>
<!-- Generator: Adobe Illustrator 19.0.0, SVG Export Plug-In . SVG Version: 6.00 Build 0)  -->
<svg version="1.1" id="Capa_1" xmlns="http://www.w3.org/2000/svg" xmlns:xlink="http://www.w3.org/1999/xlink" x="0px" y="0px"
	 viewBox="0 0 512 512" style="enable-background:new 0 0 512 512;" xml:space="preserve">
<g>
	<g>
		<circle cx="166" cy="316" r="15"/>
	</g>
</g>
<g>
	<g>
		<circle cx="346" cy="316" r="15"/>
	</g>
</g>
<g>
	<g>
		<path d="M256,0C115.041,0,0,115.049,0,256c0,140.959,115.049,256,256,256c140.959,0,256-115.049,256-256
			C512,115.041,396.951,0,256,0z M256,482C131.383,482,30,380.617,30,256S131.383,30,256,30s226,101.383,226,226
			S380.617,482,256,482z"/>
	</g>
</g>
<g>
	<g>
		<path d="M256,61C148.355,61,61,148.546,61,256c0,55.287,23.688,108.221,64.99,145.23c6.169,5.528,15.653,5.009,21.182-1.161
			c5.528-6.17,5.008-15.653-1.161-21.181C114.809,350.929,95.498,312.244,91.703,271H106c8.284,0,15-6.716,15-15s-6.716-15-15-15
			H91.689c3.102-34.25,16.707-65.512,37.571-90.527l10.068,10.068c5.857,5.857,15.355,5.858,21.213,0
			c5.858-5.858,5.858-15.355,0-21.213l-10.068-10.068C175.488,108.396,206.75,94.79,241,91.689V106c0,8.284,6.716,15,15,15
			s15-6.716,15-15V91.689c34.25,3.101,65.512,16.707,90.527,37.571l-10.068,10.068c-5.858,5.858-5.858,15.355,0,21.213
			c5.857,5.857,15.355,5.858,21.213,0l10.068-10.068c20.864,25.015,34.469,56.277,37.571,90.527H406c-8.284,0-15,6.716-15,15
			s6.716,14.9,15,14.9h14.297c-3.795,41.244-23.106,80.029-54.307,107.987c-6.169,5.529-6.689,15.012-1.161,21.181
			c5.535,6.176,15.017,6.684,21.182,1.161C427.312,364.221,451,311.287,451,256C451,148.589,363.599,61,256,61z"/>
	</g>
</g>
<g>
	<g>
		<path d="M271,213.58V166c0-8.284-6.716-15-15-15s-15,6.716-15,15v47.58c-17.459,6.192-30,22.865-30,42.42
			c0,24.813,20.187,45,45,45s45-20.187,45-45C301,236.445,288.459,219.772,271,213.58z M256,271c-8.271,0-15-6.729-15-15
			s6.729-15,15-15s15,6.729,15,15S264.271,271,256,271z"/>
	</g>
</g>
<g>
	<g>
		<path d="M316,331H196c-8.284,0-15,6.716-15,15v60c0,8.284,6.716,15,15,15h120c8.284,0,15-6.716,15-15v-60
			C331,337.716,324.284,331,316,331z M301,391h-90v-30h90V391z"/>
	</g>
</g>
<g>
</g>
<g>
</g>
<g>
</g>
<g>
</g>
<g>
</g>
<g>
</g>
<g>
</g>
<g>
</g>
<g>
</g>
<g>
</g>
<g>
</g>
<g>
</g>
<g>
</g>
<g>
</g>
<g>
</g>
</svg>
